<svg width="218" height="203" viewBox="0 0 218 203" fill="none" xmlns="http://www.w3.org/2000/svg">
<path fill-rule="evenodd" clip-rule="evenodd" d="M80.7134 0.998047L86.4758 1.5219L95.9047 5.95903L94.7096 10.1419V13.4028L95.6855 18.2823L96.6895 22.298L97.3901 26.5018H93.7096V34.6789L90.4022 36.0018H86.8626L88.1255 44.8417L90.767 46.1625L94.4766 49.3421L97.0828 53.5121L99.6742 58.6948L100.71 65.4254V72.9254L101.696 79.3374L101.698 79.3498L102.603 84.7773L110.21 79.4796V59.926C110.193 59.7872 110.184 59.6458 110.184 59.5018C110.184 59.3579 110.193 59.2164 110.21 59.0776V59.0018H110.22C110.438 57.4595 111.652 56.2447 113.126 55.4417C114.795 54.533 117.031 54.0018 119.447 54.0018C121.863 54.0018 124.099 54.533 125.768 55.4417C127.398 56.3296 128.71 57.7209 128.71 59.5018C128.71 59.6721 128.698 59.8388 128.674 60.0018H128.71V105.412C128.71 107.193 127.398 108.584 125.768 109.472C124.099 110.381 121.863 110.912 119.447 110.912C117.031 110.912 114.795 110.381 113.126 109.472C111.681 108.685 110.486 107.501 110.233 106.002H110.21V105.836C110.193 105.697 110.184 105.556 110.184 105.412H110.21V90.494L104.239 94.9427L104.702 97.8763L105.651 107.835L111.612 110.586L117.71 113.127L123.895 117.766L130.457 125.337L130.465 125.347L134.56 129.954L136.664 134.687L137.623 139.001L142.975 144.353L145.611 148.043L146.548 150.854L156.264 157.17L165.278 163.179L175.753 170.661L181.701 174.131L187.076 177.063L190.865 178.01L198.243 178.502H206.147L209.958 178.026L212.71 176.925L216.036 178.256L217.29 182.644L215.49 185.645L210.35 190.271L203.715 195.374L197.513 197.959L192.819 199.002H189.012L186.178 200.892L183.402 202.002H179.674L177.303 198.445L176.226 195.212L175.784 190.792L150.08 184.002H146.063L140.79 182.42L135.019 178.748L131.919 174.614L127.912 169.605L125.387 166.07L123.433 163.139L120.106 159.813L114.594 156.845L112.571 160.385L96.6791 150.85L85.148 143.329L76.563 137.269L71.4325 132.139L68.2947 127.432L66.7188 122.179L66.3204 115.806L48.2157 127.988L48.2447 128.22L46.4747 131.17L43.6639 133.419L39.6407 134.425L23.7096 146.011L23.7096 177.002C23.7096 177.961 23.2516 178.792 22.5962 179.456C21.945 180.116 21.0523 180.664 20.0281 181.103C17.9762 181.982 15.2113 182.502 12.2096 182.502C9.20792 182.502 6.44295 181.982 4.39105 181.103C3.36688 180.664 2.47418 180.116 1.82299 179.456C1.16756 178.792 0.709595 177.961 0.709595 177.002V107.002H0.751675C0.724111 106.839 0.709595 106.673 0.709595 106.502C0.709595 105.542 1.16756 104.712 1.82299 104.048C2.47418 103.388 3.36688 102.84 4.39105 102.401C6.44295 101.521 9.20792 101.002 12.2096 101.002C15.2113 101.002 17.9762 101.521 20.0281 102.401C21.0523 102.84 21.945 103.388 22.5962 104.048C23.2516 104.712 23.7096 105.542 23.7096 106.502C23.7096 106.673 23.6951 106.839 23.6675 107.002H23.7096L23.7096 131.133L29.7679 127.094L31.7189 97.8293L32.7655 94.1662L34.3267 90.5235L36.4072 87.4027L38.7576 84.5822L40.2253 73.8193L42.2466 65.2286L43.7923 60.5917L47.8276 53.5298L50.8555 47.474L52.4953 45.2875L54.7574 43.591L58.3857 42.5544L60.7333 41.6153L66.7896 37.4225L68.6603 25.7306L66.843 23.0047L65.2661 19.8509L64.1984 15.58L64.7334 9.6946L66.9309 5.84908L70.1997 3.12504L74.4884 1.5168L80.7134 0.998047ZM112.21 105.679C112.33 106.326 112.891 107.066 114.083 107.716C115.405 108.436 117.299 108.912 119.447 108.912C121.595 108.912 123.489 108.436 124.811 107.716C126.171 106.975 126.71 106.116 126.71 105.412V62.9625C126.414 63.1823 126.098 63.3824 125.768 63.562C124.099 64.4707 121.863 65.0018 119.447 65.0018C117.031 65.0018 114.795 64.4707 113.126 63.562C112.806 63.3875 112.498 63.1936 112.21 62.9812V80.524L102.967 86.9611L103.197 88.3459L103.887 92.7111L112.21 86.5097V105.679ZM114.083 57.1981C112.891 57.8473 112.33 58.5871 112.21 59.2342V59.7695C112.33 60.4166 112.891 61.1564 114.083 61.8056C115.405 62.5256 117.299 63.0018 119.447 63.0018C121.595 63.0018 123.489 62.5256 124.811 61.8056C126.171 61.0648 126.71 60.2062 126.71 59.5018C126.71 58.7975 126.171 57.9388 124.811 57.1981C123.489 56.4781 121.595 56.0018 119.447 56.0018C117.299 56.0018 115.405 56.4781 114.083 57.1981ZM2.70959 177.002C2.70959 177.285 2.83926 177.638 3.24648 178.051C3.65795 178.468 4.30294 178.889 5.17889 179.265C6.92725 180.014 9.41228 180.502 12.2096 180.502C15.0069 180.502 17.4919 180.014 19.2403 179.265C20.1163 178.889 20.7612 178.468 21.1727 178.051C21.5799 177.638 21.7096 177.285 21.7096 177.002L21.7096 109.692C21.2126 110.035 20.6442 110.339 20.0281 110.603C17.9762 111.482 15.2113 112.002 12.2096 112.002C9.20792 112.002 6.44295 111.482 4.39105 110.603C3.77502 110.339 3.20655 110.035 2.70959 109.692V177.002ZM23.7096 133.537V143.538L38.3276 132.907L38.6689 131.542L38.3694 130.644L37.3437 129.96L30.5347 128.987L23.7096 133.537ZM38.0756 128.044L31.8074 127.148L31.7723 127.096L33.7003 98.1744L34.6537 94.8375L36.0926 91.4801L38.0121 88.601L40.6617 85.4214L42.194 74.1843L44.1727 65.775L45.627 61.412L49.5916 54.4739L52.5637 48.5297L53.9239 46.7161L55.6619 45.4126L59.0335 44.4493L61.6859 43.3883L68.6297 38.5811L70.759 25.273L68.5762 21.9989L67.1532 19.1528L66.2209 15.4236L66.6858 10.3091L68.4884 7.15457L71.2195 4.87861L74.9309 3.48686L80.7059 3.00561L85.9434 3.48175L93.5145 7.04462L92.7096 9.86177V13.6008L93.7337 18.7213L94.7298 22.7056L95.0292 24.5018H91.7096V33.3248L90.017 34.0018H84.5566L86.2938 46.1619L89.6523 47.8412L92.9427 50.6615L95.3365 54.4916L97.7451 59.3088L98.7096 65.5783V73.0783L99.7212 79.6539L101.222 88.6578L101.223 88.6662L102.717 98.1273L103.769 109.169L110.808 112.418L116.71 114.877L122.524 119.238L128.954 126.657L132.859 131.05L134.755 135.316L135.797 140.003L141.444 145.65L143.809 148.961L144.872 152.15L155.155 158.834L155.165 158.84L164.141 164.825L174.666 172.342L180.718 175.873L186.343 178.941L190.554 179.994L198.176 180.502H206.272L207.412 180.359L205.359 182.002H202.25L189.824 181.008L180.015 179.536L168.193 173.626L154.256 165.164L144.331 158.216L139.958 154.329L137.569 150.984L136.031 147.909L130.417 142.295L129.003 143.709L134.388 149.094L135.85 152.019L138.461 155.675L143.089 159.788L153.163 166.84L167.226 175.378L179.404 181.467L189.595 182.996L202.17 184.002H206.06L208.56 182.002H210.295L211.288 182.995L211.688 184.991L211.303 186.723L209.069 188.733L202.704 193.629L196.906 196.045L192.6 197.002H188.407L185.242 199.112L183.017 200.002H180.745L179.116 197.559L178.194 194.791L177.636 189.212L150.339 182.002H146.356L141.63 180.584L136.4 177.256L133.5 173.389L129.508 168.398L127.033 164.934L124.987 161.865L121.313 158.191L113.825 154.159L111.848 157.619L97.7402 149.154L86.2712 141.674L77.8562 135.734L72.9868 130.865L70.1245 126.571L68.7005 121.825L68.2158 114.07L69.1639 109.329L71.7575 104.142L70.1722 96.2157L67.1026 88.5416L62.5228 81.4175L58.7999 76.7639L59.6488 73.3684L62.5283 68.0892L68.4444 61.6801L66.9748 60.3235L60.891 66.9144L57.7705 72.6352L56.7938 76.542L52.3651 81.9549L50.7096 85.2658V89.3551L49.2818 94.1146L46.3157 99.5524L36.7524 120.273L40.8688 120.959L44.0972 122.804L45.7599 124.466L46.1745 127.783L44.9446 129.833L42.7554 131.585L40.584 132.127L40.7504 131.462L40.0498 129.36L38.0756 128.044ZM210.272 180.002H211.124L213.131 182.009L213.651 184.609L213.929 184.359L215.129 182.359L214.383 179.748L212.71 179.079L210.461 179.978L210.272 180.002ZM66.3098 113.402L67.2553 108.674L69.6618 103.861L69.586 103.483L44.1089 120.507L45.322 121.2L47.6594 123.537L47.9377 125.765L66.3098 113.402ZM42.1685 119.398L69.1616 101.361L68.2471 96.788L65.3167 89.4621L60.8964 82.5861L57.7009 78.5917L54.0542 83.0488L52.7096 85.7379V89.6486L51.1375 94.8891L48.1036 100.451L39.6668 118.731L41.5505 119.045L42.1685 119.398ZM3.24648 105.453C2.83926 105.865 2.70959 106.219 2.70959 106.502C2.70959 106.785 2.83926 107.138 3.24648 107.551C3.65795 107.968 4.30294 108.389 5.17889 108.765C6.92725 109.514 9.41228 110.002 12.2096 110.002C15.0069 110.002 17.4919 109.514 19.2403 108.765C20.1163 108.389 20.7612 107.968 21.1727 107.551C21.5799 107.138 21.7096 106.785 21.7096 106.502C21.7096 106.219 21.5799 105.865 21.1727 105.453C20.7612 105.036 20.1163 104.614 19.2403 104.239C17.4919 103.49 15.0069 103.002 12.2096 103.002C9.41228 103.002 6.92725 103.49 5.17889 104.239C4.30294 104.614 3.65795 105.036 3.24648 105.453Z" fill="black"/>
</svg>
