<svg width="246" height="179" viewBox="0 0 246 179" fill="none" xmlns="http://www.w3.org/2000/svg">
<path fill-rule="evenodd" clip-rule="evenodd" d="M231.462 0.5H225.088L218.866 2.57379L209.813 7.10031L202.343 10.6159L201.637 8.49794L198.292 4.59612L193.36 3.5H179.688L171.573 4.51435L162.907 6.55334L158.699 8.65748L155.575 11.2608L151.504 15.3321L149.602 17.709L134.477 25.5157L111.468 27.0163L84.887 41.3289L83.888 45.3249L75.7732 49.6209L72.0018 51.7161L62.726 51.4992L55.5233 52.0136L50.1649 54.157L47.8368 56.7179L44.7857 56.5H39.6269L35.3233 57.5759L31.6014 60.2344L28.5108 63.325L27.115 65H23.151L20.384 65.5534L17.5814 67.235L15.7694 69.5H10.6598L4.8675 70.5532L1.40982 72.8583L0.25 76.3377V80.7361L1.37275 82.9816L2.91905 85.5587L4.25 87.3333V100.736L5.42815 103.092L12.3358 110H22.6642L25.1928 107.471L25.7642 103.472L25.1459 100.381L21.3505 98.0086L22.397 91.9909L23.3098 95.8702L25.4289 99.5786L28.7658 103.472L29.1876 103.498C30.53 103.582 32.5712 103.683 34.3333 103.712C35.2116 103.727 36.0386 103.724 36.6804 103.691C36.9983 103.674 37.296 103.649 37.5415 103.608C37.663 103.588 37.7974 103.561 37.9261 103.519C38.0223 103.488 38.2576 103.407 38.4571 103.207C38.6403 103.024 38.859 102.709 39.0486 102.424C39.2596 102.106 39.5044 101.716 39.7532 101.309C40.2514 100.494 40.7816 99.5853 41.1182 98.9961L41.25 98.7656V93.9648L35.25 89.9648V79.8471L49.2895 77.5072L60.7565 78.5043L66.1438 77.9656L68.4499 76.1207L74.0555 77.9893L81.7167 78.5H88.1616L90.7789 83.2111L100.64 79.924L115.226 72.3794L130.049 63.98L147.826 62.6162L147.801 62.6832L146.25 67.8532V77.0623L147.759 89.1327L147.76 89.1414L150.268 106.7L154.202 121.45L147.75 125.787V100.5H147.712C147.737 100.337 147.75 100.171 147.75 100C147.75 98.146 146.2 96.7689 144.396 95.9143C142.515 95.0236 139.988 94.5 137.25 94.5C134.512 94.5 131.985 95.0236 130.104 95.9143C128.3 96.7689 126.75 98.146 126.75 100C126.75 100.171 126.763 100.337 126.788 100.5H126.75V173.5H126.788C127.038 175.103 128.466 176.31 130.104 177.086C131.985 177.976 134.512 178.5 137.25 178.5C139.988 178.5 142.515 177.976 144.396 177.086C146.034 176.31 147.462 175.103 147.712 173.5H147.75V139.143L159.675 130.442L161.358 132H164.998L168.83 129.973L173.025 126.146L175.75 121.787V119.507L195.348 105.167L197.173 106.08L200.735 104.892L203.508 102.674L206.161 98.4291L206.596 97.1247L211.75 93.4432V108.5H211.784C211.996 110.029 213.164 111.244 214.603 112.054C216.226 112.967 218.402 113.5 220.75 113.5C223.098 113.5 225.274 112.967 226.897 112.054C228.489 111.158 229.75 109.764 229.75 108V63.5H229.716C229.738 63.3369 229.75 63.1702 229.75 63C229.75 61.2356 228.489 59.842 226.897 58.9464C225.274 58.0333 223.098 57.5 220.75 57.5C218.402 57.5 216.226 58.0333 214.603 58.9464C213.011 59.842 211.75 61.2356 211.75 63V82.4805L203.445 88.3167L202.246 87.6317L198.25 85.4116V58.3769L196.285 50.5172L197.23 47.209L198.245 40.1065L198.703 33.6959L201.94 32.401L202.283 34.8021L204.461 39.1584L206.917 41H212.321L215.305 40.5737L216.75 42.5H219.36L228.467 40.4762L228.475 40.4744L234.913 38.9887L240.097 38.4702L243.501 36.2011L245.75 32.2656V20.3902L243.683 11.0892L239.997 5.823L236.29 2.64558L231.462 0.5ZM128.75 173C128.75 173.631 129.326 174.504 130.961 175.278C132.518 176.016 134.741 176.5 137.25 176.5C139.759 176.5 141.982 176.016 143.539 175.278C145.174 174.504 145.75 173.631 145.75 173V138.315L145.661 138.192L145.75 138.127V127.256L145.692 127.17L145.75 127.131V103.299C145.332 103.597 144.873 103.86 144.396 104.086C142.515 104.976 139.988 105.5 137.25 105.5C134.512 105.5 131.985 104.976 130.104 104.086C129.627 103.86 129.168 103.597 128.75 103.299V173ZM147.75 136.667V128.197L156.651 122.213L159.86 121.5H162.947L163.75 122.035V124.992L147.75 136.667ZM227.75 66.4993C227.481 66.701 227.195 66.886 226.897 67.0536C225.274 67.9667 223.098 68.5 220.75 68.5C218.402 68.5 216.226 67.9667 214.603 67.0536C214.305 66.886 214.019 66.701 213.75 66.4993V83.5195L205.363 89.4129L206.009 89.782L207.83 93.4233L207.671 93.8988L213.75 89.5568V108C213.75 108.721 214.28 109.577 215.583 110.31C216.855 111.026 218.68 111.5 220.75 111.5C222.82 111.5 224.645 111.026 225.917 110.31C227.22 109.577 227.75 108.721 227.75 108V66.4993ZM213.75 63C213.75 63.7209 214.28 64.5773 215.583 65.3104C216.855 66.0259 218.68 66.5 220.75 66.5C222.82 66.5 224.645 66.0259 225.917 65.3104C227.22 64.5773 227.75 63.7209 227.75 63C227.75 62.2791 227.22 61.4227 225.917 60.6896C224.645 59.9741 222.82 59.5 220.75 59.5C218.68 59.5 216.855 59.9741 215.583 60.6896C214.28 61.4227 213.75 62.2791 213.75 63ZM62.774 53.5008L68.5463 53.6359L66.7149 54.6533L63.1593 57.193L61.4847 58.449L51.86 57.0053L50.3749 56.8992L51.3351 55.843L55.9767 53.9864L62.774 53.5008ZM23.349 67H24.2878L21.9019 68.0604L18.7182 69.0155L18.9186 68.765L21.116 67.4466L23.349 67ZM151.29 53.2136L148.586 60.552L129.451 62.02L114.273 70.6207L99.8599 78.076L91.7211 80.7889L89.3384 76.5H81.7833L74.4445 76.0107L68.0501 73.8793L65.3562 76.0344L60.7435 76.4957L49.2105 75.4928L33.25 78.1529V91.0352L39.25 95.0352V98.2335C38.9227 98.8019 38.4715 99.5713 38.0468 100.266C37.8039 100.663 37.5738 101.029 37.3827 101.317C37.2955 101.448 37.2199 101.558 37.1574 101.644C37.02 101.663 36.8265 101.68 36.5759 101.694C36.0031 101.724 35.2301 101.727 34.3667 101.713C32.8192 101.687 31.0394 101.604 29.7334 101.527L27.0711 98.4213L25.1902 95.1298L23.2234 86.771L21.2648 86.8287L19.1495 98.9914L23.3541 101.619L23.7358 103.528L23.3072 106.529L21.8358 108H13.1642L7.07185 101.908L6.25 100.264V86.6667L4.58096 84.4413L3.12725 82.0184L2.25 80.2639V76.6623L3.09019 74.1417L5.63249 72.4469L10.8402 71.5H17.3968L22.5981 69.9396L27.3691 67.8192L29.9892 64.675L32.8986 61.7656L36.1767 59.4241L39.8731 58.5H44.7143L51.64 58.9947L62.0153 60.551L64.3407 58.807L67.7851 56.3467L76.7267 51.3791L85.612 46.6751L86.613 42.6711L112.032 28.9837L135.023 27.4843L150.898 19.291L152.996 16.6679L156.925 12.7392L159.801 10.3425L163.593 8.44666L171.927 6.48565L179.812 5.5H193.14L197.208 6.40388L199.863 9.50207L201.157 13.3841L210.687 8.89975L219.634 4.4262L225.412 2.5H231.038L235.21 4.35443L238.503 7.177L241.817 11.9108L243.75 20.6097V31.7344L241.999 34.7989L239.403 36.5298L234.587 37.0113L228.033 38.5238L228.025 38.5256L219.14 40.5H217.75L216.195 38.4263L212.179 39H207.583L206.039 37.8416L204.217 34.1979L203.56 29.599L196.797 32.3041L196.255 39.8935L195.27 46.791L194.215 50.4828L196.25 58.6231V86.5884L201.254 89.3682L201.264 89.3742L204.491 91.218L205.67 93.5767L204.339 97.5709L201.992 101.326L199.765 103.108L197.327 103.92L197.003 103.758L201.842 99.3591L201.124 95.7727L197.943 94.5H193.93L191.75 96.0568V86.792L186.677 75.1248L183.709 67.2088L181.732 58.8092L180.558 51.1765L170.008 54.6933L168.367 58.5217L166.433 61.4221L163.526 65.2984L160.75 67.5194V71.2L163.25 77.2V82.4738L162.753 91.9199L160.675 111.136L167.334 113.91L173.75 117.118V121.213L171.475 124.854L167.67 128.324L164.502 130H162.142L161.321 129.24L165.75 126.008V120.965L163.553 119.5H159.64L155.969 120.316L152.232 106.3L149.742 88.876L149.74 88.8586L148.25 76.9377V68.1468L149.699 63.3168L153.21 53.7864L154.75 47.1139V40.255L157.75 34.755V31.14L158.704 27.8021L162.695 16.3285L160.805 15.6715L156.796 27.1981L155.75 30.8599V34.245L152.75 39.745V46.8861L151.29 53.2136ZM199.658 98.6409L194.617 103.224L175.75 117.029V115.882L169.757 112.885L191.314 98.826L194.57 96.5H197.557L199.376 97.2273L199.658 98.6409ZM189.75 97.4583L167.647 111.874L162.825 109.864L164.747 92.0801L165.25 82.5263V76.8L162.75 70.8V68.4806L164.974 66.7016L168.067 62.5778L170.133 59.4783L171.492 56.3067L178.942 53.8235L179.768 59.1908L181.791 67.7913L184.823 75.8752L189.75 87.208V97.4583ZM128.75 100C128.75 99.3688 129.326 98.4958 130.961 97.7218C132.518 96.9838 134.741 96.5 137.25 96.5C139.759 96.5 141.982 96.9838 143.539 97.7218C145.174 98.4958 145.75 99.3688 145.75 100C145.75 100.631 145.174 101.504 143.539 102.278C141.982 103.016 139.759 103.5 137.25 103.5C134.741 103.5 132.518 103.016 130.961 102.278C129.326 101.504 128.75 100.631 128.75 100Z" fill="black"/>
</svg>
